<svg xmlns="http://www.w3.org/2000/svg" width="24" height="24" viewBox="0 0 12 12" fill="none">
  <path fill-rule="evenodd" clip-rule="evenodd" d="M6 12C7.5913 12 9.1174 11.3679 10.2426 10.2426C11.3679 9.1174 12 7.5913 12 6C12 4.4087 11.3679 2.8826 10.2426 1.7574C9.1174 0.6321 7.5913 0 6 0C4.4087 0 2.8826 0.6321 1.7574 1.7574C0.6321 2.8826 0 4.4087 0 6C0 7.5913 0.6321 9.1174 1.7574 10.2426C2.8826 11.3679 4.4087 12 6 12V12ZM6.75 3C6.75 2.8011 6.671 2.6103 6.5303 2.4697C6.3897 2.329 6.1989 2.25 6 2.25C5.8011 2.25 5.6103 2.329 5.4697 2.4697C5.329 2.6103 5.25 2.8011 5.25 3V6C5.25 6.1989 5.329 6.3897 5.4697 6.5303L7.5909 8.6523C7.6603 8.7217 7.7428 8.7768 7.834 8.8145C7.9252 8.8523 8.023 8.8718 8.121 8.8718C8.219 8.8718 8.3168 8.8523 8.408 8.8145C8.4992 8.7768 8.5817 8.7217 8.6511 8.6523C8.7205 8.5829 8.7756 8.5004 8.8134 8.4092C8.8511 8.318 8.8707 8.2202 8.8707 8.1222C8.8707 8.0242 8.8511 7.9264 8.8134 7.8352C8.7756 7.744 8.7205 7.6615 8.6511 7.5921L6.75 5.689V3Z" fill="#FFFFFF"/>
</svg>
